<?xml version="1.0" encoding="UTF-8"?>
<svg data-bbox="0 0 84.076 56.129" xmlns="http://www.w3.org/2000/svg" viewBox="0 0 85 57" height="57" width="85" data-type="color">
    <g>
        <path d="M40.946 20.417c0 11.277-9.14 20.417-20.417 20.417-.957 0-1.891-.093-2.814-.224.627 6.592 4.387 12.26 9.777 15.519C11.679 51.562-1.346 37.207.112 20.062 1.067 8.826 9.252 0 20.529 0c11.277 0 20.417 9.141 20.417 20.417zm43.13 0c0 11.277-9.14 20.417-20.418 20.417-.956 0-1.891-.093-2.814-.224.628 6.592 4.387 12.26 9.777 15.519-15.814-4.567-28.84-18.922-27.381-36.067C44.196 8.826 52.382 0 63.658 0c11.278 0 20.418 9.141 20.418 20.417z" fill="#FFFFFF" opacity=".15" data-color="1"/>
    </g>
</svg>
