<?xml version="1.0" encoding="UTF-8"?>
<svg data-bbox="0 0 400 90" xmlns="http://www.w3.org/2000/svg" viewBox="0 0 400 90" height="90" width="400" data-type="ugc">
    <g>
        <defs>
            <linearGradient id="5cb54d86-095b-4a10-b3d8-484cc043e433" y2="50%" x2=".418%" y1="50%" x1="100%">
                <stop offset="0%" stop-color="#ECCB3C"/>
                <stop offset="100%" stop-color="#D8A11E"/>
            </linearGradient>
        </defs>
        <g fill-rule="evenodd">
            <path fill="url(#5cb54d86-095b-4a10-b3d8-484cc043e433)" d="M400 20v50c0 11.046-8.954 20-20 20H20C8.954 90 0 81.046 0 70V20C0 8.954 8.954 0 20 0h360c11.046 0 20 8.954 20 20z"/>
            <path fill-rule="nonzero" fill="#FFFFFF" d="M49.71 71l1.953-9.644h-7.398L42.312 71h-4.15l1.928-9.644h-5.64l.806-4.126h5.689l1.611-8.08h-5.884l.83-4.102h5.884l1.929-9.277h4.15l-1.855 9.277h7.373l1.904-9.277h4.175l-1.88 9.277h5.957l-.781 4.101h-6.03l-1.66 8.081h6.2l-.78 4.126h-6.226L53.909 71h-4.2zm-4.786-13.574h7.666l1.734-8.447h-7.69l-1.71 8.447zm35.816-10.34v-6.445h6.372c5.713 0 9.631-3.589 9.631-8.57 0-4.906-3.369-8.166-9.631-8.166-5.713 0-9.522 3.296-9.998 8.496h-7.727c.623-9.265 7.617-15.234 18.091-15.234 9.998 0 17.285 5.676 17.285 13.806 0 6.592-4.321 11.316-10.876 12.488v.146c7.946.55 13.073 5.42 13.073 12.818 0 9.228-8.386 15.564-19.409 15.564-11.389 0-18.713-6.262-19.226-15.381H76.2c.512 5.054 4.687 8.533 11.352 8.533 6.446 0 11.06-3.662 11.06-8.826 0-5.713-4.321-9.229-11.28-9.229H80.74z"/>
            <path fill-rule="nonzero" fill="#FFFFFF" d="M144.16 50.96c-1.747.933-3.7 1.4-5.86 1.4-1.093 0-2.097-.177-3.01-.53a6.868 6.868 0 0 1-2.36-1.5 6.892 6.892 0 0 1-1.55-2.33c-.373-.907-.56-1.913-.56-3.02 0-1.133.187-2.163.56-3.09a6.933 6.933 0 0 1 1.55-2.37 6.794 6.794 0 0 1 2.36-1.51c.913-.353 1.917-.53 3.01-.53 1.08 0 2.093.13 3.04.39.947.26 1.793.723 2.54 1.39l-1.86 1.88a4.664 4.664 0 0 0-1.65-1.02 5.844 5.844 0 0 0-2.05-.36c-.733 0-1.397.13-1.99.39s-1.103.62-1.53 1.08c-.427.46-.757.997-.99 1.61a5.522 5.522 0 0 0-.35 1.98c0 .76.117 1.46.35 2.1.233.64.563 1.193.99 1.66.427.467.937.833 1.53 1.1.593.267 1.257.4 1.99.4.64 0 1.243-.06 1.81-.18a5.14 5.14 0 0 0 1.51-.56V46h-2.9v-2.28h5.42v7.24zm2.8-14.08h2.4V52h-2.4V36.88zm4.68 10.32c0-.76.137-1.45.41-2.07a4.84 4.84 0 0 1 1.11-1.59c.467-.44 1.02-.78 1.66-1.02.64-.24 1.32-.36 2.04-.36s1.4.12 2.04.36c.64.24 1.193.58 1.66 1.02.467.44.837.97 1.11 1.59.273.62.41 1.31.41 2.07 0 .76-.137 1.45-.41 2.07a4.84 4.84 0 0 1-1.11 1.59c-.467.44-1.02.78-1.66 1.02-.64.24-1.32.36-2.04.36s-1.4-.12-2.04-.36a4.893 4.893 0 0 1-1.66-1.02 4.84 4.84 0 0 1-1.11-1.59c-.273-.62-.41-1.31-.41-2.07zm2.4 0c0 .373.063.733.19 1.08.127.347.313.653.56.92.247.267.543.48.89.64.347.16.74.24 1.18.24.44 0 .833-.08 1.18-.24a2.79 2.79 0 0 0 .89-.64 2.71 2.71 0 0 0 .56-.92c.127-.347.19-.707.19-1.08 0-.373-.063-.733-.19-1.08a2.71 2.71 0 0 0-.56-.92 2.79 2.79 0 0 0-.89-.64c-.347-.16-.74-.24-1.18-.24-.44 0-.833.08-1.18.24a2.79 2.79 0 0 0-.89.64 2.71 2.71 0 0 0-.56.92c-.127.347-.19.707-.19 1.08zm10.28-10.32h2.4v6.74h.06c.12-.16.273-.323.46-.49a3.68 3.68 0 0 1 .68-.47c.267-.147.573-.267.92-.36.347-.093.747-.14 1.2-.14.68 0 1.307.13 1.88.39s1.063.617 1.47 1.07c.407.453.723.987.95 1.6.227.613.34 1.273.34 1.98 0 .707-.107 1.367-.32 1.98a4.575 4.575 0 0 1-.94 1.6c-.413.453-.913.81-1.5 1.07s-1.247.39-1.98.39c-.68 0-1.313-.133-1.9-.4a3.087 3.087 0 0 1-1.4-1.28h-.04V52h-2.28V36.88zm7.96 10.32c0-.373-.063-.733-.19-1.08a2.71 2.71 0 0 0-.56-.92 2.79 2.79 0 0 0-.89-.64c-.347-.16-.74-.24-1.18-.24-.44 0-.833.08-1.18.24a2.79 2.79 0 0 0-.89.64 2.71 2.71 0 0 0-.56.92c-.127.347-.19.707-.19 1.08 0 .373.063.733.19 1.08.127.347.313.653.56.92.247.267.543.48.89.64.347.16.74.24 1.18.24.44 0 .833-.08 1.18-.24a2.79 2.79 0 0 0 .89-.64 2.71 2.71 0 0 0 .56-.92c.127-.347.19-.707.19-1.08zm10.64 3.48h-.06c-.347.547-.787.943-1.32 1.19s-1.12.37-1.76.37c-.44 0-.87-.06-1.29-.18-.42-.12-.793-.3-1.12-.54a2.77 2.77 0 0 1-.79-.9c-.2-.36-.3-.78-.3-1.26 0-.52.093-.963.28-1.33a2.74 2.74 0 0 1 .75-.92 3.801 3.801 0 0 1 1.09-.59 7.466 7.466 0 0 1 1.29-.33c.447-.073.897-.12 1.35-.14.453-.02.88-.03 1.28-.03h.6v-.26c0-.6-.207-1.05-.62-1.35-.413-.3-.94-.45-1.58-.45-.507 0-.98.09-1.42.27-.44.18-.82.423-1.14.73l-1.26-1.26a4.652 4.652 0 0 1 1.87-1.18c.713-.24 1.45-.36 2.21-.36.68 0 1.253.077 1.72.23.467.153.853.35 1.16.59.307.24.543.517.71.83.167.313.287.63.36.95.073.32.117.63.13.93.013.3.02.563.02.79V52h-2.16v-1.32zm-.14-2.98h-.5c-.333 0-.707.013-1.12.04-.413.027-.803.09-1.17.19-.367.1-.677.247-.93.44s-.38.463-.38.81c0 .227.05.417.15.57.1.153.23.283.39.39.16.107.34.183.54.23.2.047.4.07.6.07.827 0 1.437-.197 1.83-.59.393-.393.59-.93.59-1.61v-.54zm4.92-10.82h2.4V52h-2.4V36.88zm5.22 0h2.4V52h-2.4V36.88zm3.86 5.52h2.64l2.68 6.66h.04l2.4-6.66h2.5l-4.54 11.66a7.34 7.34 0 0 1-.57 1.19c-.207.34-.45.627-.73.86-.28.233-.61.407-.99.52-.38.113-.837.17-1.37.17a7.11 7.11 0 0 1-1.84-.24l.3-2.16c.187.067.383.123.59.17.207.047.417.07.63.07.293 0 .54-.027.74-.08.2-.053.37-.137.51-.25.14-.113.257-.26.35-.44.093-.18.193-.397.3-.65l.46-1.14-4.1-9.68zm17.64 0h2.4V52h-2.4v-9.6zm-.34-3.26c0-.387.143-.723.43-1.01.287-.287.65-.43 1.09-.43.44 0 .81.137 1.11.41.3.273.45.617.45 1.03 0 .413-.15.757-.45 1.03-.3.273-.67.41-1.11.41-.44 0-.803-.143-1.09-.43a1.383 1.383 0 0 1-.43-1.01zm5.5 3.26h2.28v1.54h.04c.227-.48.573-.897 1.04-1.25.467-.353 1.1-.53 1.9-.53.64 0 1.183.107 1.63.32.447.213.81.493 1.09.84s.48.747.6 1.2c.12.453.18.927.18 1.42V52h-2.4v-4.86c0-.267-.013-.563-.04-.89a3.195 3.195 0 0 0-.21-.92 1.723 1.723 0 0 0-.53-.72c-.24-.193-.567-.29-.98-.29-.4 0-.737.067-1.01.2a1.94 1.94 0 0 0-.68.54c-.18.227-.31.487-.39.78-.08.293-.12.6-.12.92V52h-2.4v-9.6zm19.8 1.34h.04c.187-.4.517-.763.99-1.09.473-.327 1.083-.49 1.83-.49.64 0 1.183.107 1.63.32.447.213.81.493 1.09.84s.48.747.6 1.2c.12.453.18.927.18 1.42V52h-2.4v-4.86c0-.267-.013-.563-.04-.89a3.195 3.195 0 0 0-.21-.92 1.723 1.723 0 0 0-.53-.72c-.24-.193-.567-.29-.98-.29-.4 0-.737.067-1.01.2a1.94 1.94 0 0 0-.68.54c-.18.227-.31.487-.39.78-.08.293-.12.6-.12.92V52h-2.4V36.88h2.4v6.86zm8.6 3.46c0-.76.137-1.45.41-2.07a4.84 4.84 0 0 1 1.11-1.59c.467-.44 1.02-.78 1.66-1.02.64-.24 1.32-.36 2.04-.36s1.4.12 2.04.36c.64.24 1.193.58 1.66 1.02.467.44.837.97 1.11 1.59.273.62.41 1.31.41 2.07 0 .76-.137 1.45-.41 2.07a4.84 4.84 0 0 1-1.11 1.59c-.467.44-1.02.78-1.66 1.02-.64.24-1.32.36-2.04.36s-1.4-.12-2.04-.36a4.893 4.893 0 0 1-1.66-1.02 4.84 4.84 0 0 1-1.11-1.59c-.273-.62-.41-1.31-.41-2.07zm2.4 0c0 .373.063.733.19 1.08.127.347.313.653.56.92.247.267.543.48.89.64.347.16.74.24 1.18.24.44 0 .833-.08 1.18-.24a2.79 2.79 0 0 0 .89-.64 2.71 2.71 0 0 0 .56-.92c.127-.347.19-.707.19-1.08 0-.373-.063-.733-.19-1.08a2.71 2.71 0 0 0-.56-.92 2.79 2.79 0 0 0-.89-.64c-.347-.16-.74-.24-1.18-.24-.44 0-.833.08-1.18.24a2.79 2.79 0 0 0-.89.64 2.71 2.71 0 0 0-.56.92c-.127.347-.19.707-.19 1.08zm15.4-2.14c-.467-.653-1.093-.98-1.88-.98-.32 0-.633.08-.94.24-.307.16-.46.42-.46.78 0 .293.127.507.38.64s.573.247.96.34c.387.093.803.19 1.25.29.447.1.863.253 1.25.46.387.207.707.49.96.85s.38.853.38 1.48c0 .573-.123 1.057-.37 1.45s-.567.71-.96.95a4.26 4.26 0 0 1-1.33.52c-.493.107-.987.16-1.48.16a6.357 6.357 0 0 1-2.06-.32c-.627-.213-1.187-.6-1.68-1.16l1.6-1.5c.307.347.637.63.99.85.353.22.783.33 1.29.33.173 0 .353-.02.54-.06.187-.04.36-.107.52-.2.16-.093.29-.21.39-.35a.82.82 0 0 0 .15-.49c0-.333-.127-.58-.38-.74a3.386 3.386 0 0 0-.96-.39c-.387-.1-.803-.193-1.25-.28a4.843 4.843 0 0 1-1.25-.42 2.626 2.626 0 0 1-.96-.81c-.253-.347-.38-.827-.38-1.44 0-.533.11-.997.33-1.39a2.9 2.9 0 0 1 .87-.97 3.76 3.76 0 0 1 1.24-.56c.467-.12.94-.18 1.42-.18a5.7 5.7 0 0 1 1.9.33c.627.22 1.133.597 1.52 1.13l-1.6 1.44zm2.64-.62V42.4h1.98v-2.78h2.4v2.78h2.64v2.04h-2.64v4.2c0 .48.09.86.27 1.14.18.28.537.42 1.07.42.213 0 .447-.023.7-.07.253-.047.453-.123.6-.23v2.02c-.253.12-.563.203-.93.25-.367.047-.69.07-.97.07-.64 0-1.163-.07-1.57-.21-.407-.14-.727-.353-.96-.64a2.438 2.438 0 0 1-.48-1.07 7.496 7.496 0 0 1-.13-1.48v-4.4h-1.98zm8.96-2.04h2.4V52h-2.4v-9.6zm-.34-3.26c0-.387.143-.723.43-1.01.287-.287.65-.43 1.09-.43.44 0 .81.137 1.11.41.3.273.45.617.45 1.03 0 .413-.15.757-.45 1.03-.3.273-.67.41-1.11.41-.44 0-.803-.143-1.09-.43a1.383 1.383 0 0 1-.43-1.01zm5.5 3.26h2.28v1.54h.04c.227-.48.573-.897 1.04-1.25.467-.353 1.1-.53 1.9-.53.64 0 1.183.107 1.63.32.447.213.81.493 1.09.84s.48.747.6 1.2c.12.453.18.927.18 1.42V52h-2.4v-4.86c0-.267-.013-.563-.04-.89a3.195 3.195 0 0 0-.21-.92 1.723 1.723 0 0 0-.53-.72c-.24-.193-.567-.29-.98-.29-.4 0-.737.067-1.01.2a1.94 1.94 0 0 0-.68.54c-.18.227-.31.487-.39.78-.08.293-.12.6-.12.92V52h-2.4v-9.6zm21.36 0v8.74c0 .867-.107 1.65-.32 2.35-.213.7-.543 1.293-.99 1.78-.447.487-1.01.863-1.69 1.13-.68.267-1.487.4-2.42.4-.893 0-1.74-.113-2.54-.34-.8-.227-1.54-.64-2.22-1.24l1.44-1.96c.48.44.98.78 1.5 1.02s1.12.36 1.8.36c.573 0 1.057-.08 1.45-.24.393-.16.707-.38.94-.66.233-.28.4-.617.5-1.01.1-.393.15-.83.15-1.31v-.7h-.04a3.163 3.163 0 0 1-1.38 1.05 4.63 4.63 0 0 1-1.76.35c-.72 0-1.373-.13-1.96-.39a4.686 4.686 0 0 1-1.51-1.05 4.57 4.57 0 0 1-.97-1.56 5.38 5.38 0 0 1-.34-1.92c0-.707.107-1.367.32-1.98a4.575 4.575 0 0 1 .94-1.6c.413-.453.91-.81 1.49-1.07s1.243-.39 1.99-.39c.68 0 1.313.133 1.9.4a3.087 3.087 0 0 1 1.4 1.28h.04V42.4h2.28zm-5.12 1.92c-.427 0-.813.07-1.16.21a2.64 2.64 0 0 0-.89.58 2.62 2.62 0 0 0-.58.9 3.15 3.15 0 0 0-.21 1.17 2.724 2.724 0 0 0 .8 1.96 2.845 2.845 0 0 0 2.02.82c.44 0 .837-.073 1.19-.22.353-.147.653-.343.9-.59a2.52 2.52 0 0 0 .57-.89c.133-.347.2-.72.2-1.12 0-.84-.253-1.52-.76-2.04s-1.2-.78-2.08-.78zm13.8-1.92h2.4V52h-2.4v-9.6zm-.34-3.26c0-.387.143-.723.43-1.01.287-.287.65-.43 1.09-.43.44 0 .81.137 1.11.41.3.273.45.617.45 1.03 0 .413-.15.757-.45 1.03-.3.273-.67.41-1.11.41-.44 0-.803-.143-1.09-.43a1.383 1.383 0 0 1-.43-1.01zm5.5 3.26h2.28v1.54h.04c.227-.48.573-.897 1.04-1.25.467-.353 1.1-.53 1.9-.53.64 0 1.183.107 1.63.32.447.213.81.493 1.09.84s.48.747.6 1.2c.12.453.18.927.18 1.42V52h-2.4v-4.86c0-.267-.013-.563-.04-.89a3.195 3.195 0 0 0-.21-.92 1.723 1.723 0 0 0-.53-.72c-.24-.193-.567-.29-.98-.29-.4 0-.737.067-1.01.2a1.94 1.94 0 0 0-.68.54c-.18.227-.31.487-.39.78-.08.293-.12.6-.12.92V52h-2.4v-9.6zm10.36 2.04V42.4h1.98v-2.78h2.4v2.78h2.64v2.04h-2.64v4.2c0 .48.09.86.27 1.14.18.28.537.42 1.07.42.213 0 .447-.023.7-.07.253-.047.453-.123.6-.23v2.02c-.253.12-.563.203-.93.25-.367.047-.69.07-.97.07-.64 0-1.163-.07-1.57-.21-.407-.14-.727-.353-.96-.64a2.438 2.438 0 0 1-.48-1.07 7.496 7.496 0 0 1-.13-1.48v-4.4h-1.98zm10.82 3.6c.08.72.36 1.28.84 1.68.48.4 1.06.6 1.74.6.6 0 1.103-.123 1.51-.37a4.186 4.186 0 0 0 1.07-.93l1.72 1.3c-.56.693-1.187 1.187-1.88 1.48-.693.293-1.42.44-2.18.44-.72 0-1.4-.12-2.04-.36a4.893 4.893 0 0 1-1.66-1.02 4.84 4.84 0 0 1-1.11-1.59c-.273-.62-.41-1.31-.41-2.07 0-.76.137-1.45.41-2.07a4.84 4.84 0 0 1 1.11-1.59c.467-.44 1.02-.78 1.66-1.02.64-.24 1.32-.36 2.04-.36.667 0 1.277.117 1.83.35a3.92 3.92 0 0 1 1.42 1.01c.393.44.7.983.92 1.63.22.647.33 1.39.33 2.23v.66h-7.32zm4.92-1.8c-.013-.707-.233-1.263-.66-1.67-.427-.407-1.02-.61-1.78-.61-.72 0-1.29.207-1.71.62-.42.413-.677.967-.77 1.66h4.92zm4.64-3.84h2.4v1.52h.04c.267-.56.647-.993 1.14-1.3.493-.307 1.06-.46 1.7-.46.147 0 .29.013.43.04.14.027.283.06.43.1v2.32a6.725 6.725 0 0 0-.59-.13 3.35 3.35 0 0 0-.57-.05c-.56 0-1.01.103-1.35.31-.34.207-.6.443-.78.71-.18.267-.3.533-.36.8s-.09.467-.09.6V52h-2.4v-9.6zm8.14 0h2.28v1.54h.04c.227-.48.573-.897 1.04-1.25.467-.353 1.1-.53 1.9-.53.64 0 1.183.107 1.63.32.447.213.81.493 1.09.84s.48.747.6 1.2c.12.453.18.927.18 1.42V52h-2.4v-4.86c0-.267-.013-.563-.04-.89a3.195 3.195 0 0 0-.21-.92 1.723 1.723 0 0 0-.53-.72c-.24-.193-.567-.29-.98-.29-.4 0-.737.067-1.01.2a1.94 1.94 0 0 0-.68.54c-.18.227-.31.487-.39.78-.08.293-.12.6-.12.92V52h-2.4v-9.6zm16.6 2.66c-.467-.653-1.093-.98-1.88-.98-.32 0-.633.08-.94.24-.307.16-.46.42-.46.78 0 .293.127.507.38.64s.573.247.96.34c.387.093.803.19 1.25.29.447.1.863.253 1.25.46.387.207.707.49.96.85s.38.853.38 1.48c0 .573-.123 1.057-.37 1.45s-.567.71-.96.95a4.26 4.26 0 0 1-1.33.52c-.493.107-.987.16-1.48.16a6.357 6.357 0 0 1-2.06-.32c-.627-.213-1.187-.6-1.68-1.16l1.6-1.5c.307.347.637.63.99.85.353.22.783.33 1.29.33.173 0 .353-.02.54-.06.187-.04.36-.107.52-.2.16-.093.29-.21.39-.35a.82.82 0 0 0 .15-.49c0-.333-.127-.58-.38-.74a3.386 3.386 0 0 0-.96-.39c-.387-.1-.803-.193-1.25-.28a4.843 4.843 0 0 1-1.25-.42 2.626 2.626 0 0 1-.96-.81c-.253-.347-.38-.827-.38-1.44 0-.533.11-.997.33-1.39a2.9 2.9 0 0 1 .87-.97 3.76 3.76 0 0 1 1.24-.56c.467-.12.94-.18 1.42-.18a5.7 5.7 0 0 1 1.9.33c.627.22 1.133.597 1.52 1.13l-1.6 1.44z"/>
        </g>
    </g>
</svg>
